# File created by Blade
# Date/Time:  Thu Jan 22 16:52:56 2015
# Frame Rate: 120.000 fps
#------------------------------------------------------
:FULLY-SPECIFIED
:DEGREES
1110
root 2.777772 3.825499 -0.407274 -35.810297 -4.805879 17.352635
RightUpLeg -55.329561 -23.720730 -34.240273
RightLeg 5.941508 -0.000000 -0.000000
RightFoot -2.658284 -21.164517 29.986749
RightToeBase -21.148349 -0.000000 0.000000
LeftUpLeg -37.343415 36.812500 14.808460
LeftLeg -2.298204 -0.000000 0.000000
LeftFoot 12.806496 25.654313 -33.096810
LeftToeBase 0.901468 -0.000000 -0.000000
Spine 71.050823 -23.277142 7.463940
RightShoulder 16.545733 52.757305 -31.415771
RightArm 15.447085 17.875584 39.437438
RightForeArm -30.840772 -0.000000 40.824800
RightHand 0.586539 -0.000000 -7.732832
RightHandThumb1 -24.326973 -0.000000 -32.862282
LeftShoulder -9.833535 0.900551 55.828620
LeftArm 107.003625 -41.700813 -42.863190
LeftForeArm 66.406031 -0.000000 28.495164
LeftHand -8.009081 -0.000000 -4.683567
LeftHandThumb1 -26.253704 0.000000 33.147579
Head 56.082120 -19.626602 19.590350
1111
root 2.777207 3.824586 -0.407462 -35.812404 -4.808673 17.355579
RightUpLeg -55.333672 -23.719651 -34.231879
RightLeg 5.933637 -0.000000 -0.000000
RightFoot -2.626504 -21.170227 29.935001
RightToeBase -21.155447 -0.000000 0.000000
LeftUpLeg -37.346766 36.815894 14.810515
LeftLeg -2.280454 -0.000000 0.000000
LeftFoot 12.812706 25.608546 -33.072953
LeftToeBase 0.941440 -0.000000 -0.000000
Spine 71.048094 -23.275180 7.460058
RightShoulder 16.547225 52.776439 -31.415565
RightArm 15.434726 17.837417 39.429605
RightForeArm -30.811215 -0.000000 40.837276
RightHand 0.551244 -0.000000 -7.677232
RightHandThumb1 -24.326973 -0.000000 -32.862282
LeftShoulder -9.853600 0.882376 55.831714
LeftArm 106.936383 -41.696007 -42.819141
LeftForeArm 66.359586 0.000000 28.489922
LeftHand -7.969616 -0.000000 -4.620537
LeftHandThumb1 -26.253704 0.000000 33.147579
Head 56.008716 -19.573795 19.706399
1112
root 2.776852 3.823426 -0.407412 -35.843829 -4.810406 17.361594
RightUpLeg -55.308392 -23.697783 -34.244936
RightLeg 5.931615 -0.000000 -0.000000
RightFoot -2.635003 -21.159740 29.955007
RightToeBase -21.159902 -0.000000 0.000000
LeftUpLeg -37.326060 36.820786 14.820788
LeftLeg -2.253938 -0.000000 0.000000
LeftFoot 12.818360 25.567352 -33.021819
LeftToeBase 0.928296 -0.000000 -0.000000
Spine 71.086570 -23.271868 7.435630
RightShoulder 16.584089 52.893299 -31.383889
RightArm 15.356089 17.745388 39.407197
RightForeArm -30.798712 -0.000000 40.811822
RightHand 0.621296 -0.000000 -7.641155
RightHandThumb1 -24.326973 -0.000000 -32.862282
LeftShoulder -9.791529 1.638668 55.556644
LeftArm 107.475923 -42.504888 -42.867317
LeftForeArm 66.082092 -0.000000 28.350060
LeftHand -7.874087 -0.000000 -4.609784
LeftHandThumb1 -26.253704 0.000000 33.147579
Head 55.931215 -19.540075 19.748215
1113
root 2.775746 3.824386 -0.407597 -35.826062 -4.809604 17.371310
RightUpLeg -55.322198 -23.704250 -34.236065
RightLeg 5.918585 -0.000000 -0.000000
RightFoot -2.650794 -21.168199 29.952234
RightToeBase -21.084176 -0.000000 0.000000
LeftUpLeg -37.354802 36.841826 14.789471
LeftLeg -2.245991 -0.000000 0.000000
LeftFoot 12.828822 25.556321 -33.005766
LeftToeBase 0.891120 -0.000000 -0.000000
Spine 71.077754 -23.270496 7.407538
RightShoulder 16.634056 52.948313 -31.309345
RightArm 15.338382 17.697557 39.395686
RightForeArm -30.803128 -0.000000 40.805858
RightHand 0.718518 -0.000000 -7.602814
RightHandThumb1 -24.326973 -0.000000 -32.862282
LeftShoulder -9.883065 1.041801 55.796572
LeftArm 106.947080 -41.873121 -42.764364
LeftForeArm 66.255170 0.000000 28.446278
LeftHand -7.875027 -0.000000 -4.614713
LeftHandThumb1 -26.253704 0.000000 33.147579
Head 55.901373 -19.519928 19.808868
1114
root 2.775467 3.824621 -0.407809 -35.813618 -4.806755 17.379296
RightUpLeg -55.329600 -23.707074 -34.243085
RightLeg 5.911523 -0.000000 -0.000000
RightFoot -2.665538 -21.174303 29.952488
RightToeBase -20.998165 -0.000000 0.000000
LeftUpLeg -37.372846 36.842316 14.776501
LeftLeg -2.231332 -0.000000 0.000000
LeftFoot 12.808271 25.572260 -33.013256
LeftToeBase 0.923514 -0.000000 -0.000000
Spine 71.078201 -23.277277 7.397113
RightShoulder 16.624947 52.949354 -31.305115
RightArm 15.358187 17.696336 39.405088
RightForeArm -30.813577 0.000000 40.818953
RightHand 0.753460 -0.000000 -7.615889
RightHandThumb1 -24.326973 -0.000000 -32.862282
LeftShoulder -9.921800 0.872671 55.852841
LeftArm 106.751502 -41.726713 -42.687337
LeftForeArm 66.234829 -0.000000 28.487551
LeftHand -7.888272 -0.000000 -4.609645
LeftHandThumb1 -26.253704 0.000000 33.147579
Head 55.846433 -19.507104 19.886522
1115
root 2.773870 3.824509 -0.407934 -35.815432 -4.816763 17.387971
RightUpLeg -55.336504 -23.695020 -34.235948
RightLeg 5.904106 -0.000000 -0.000000
RightFoot -2.652825 -21.195042 29.937724
RightToeBase -21.042075 -0.000000 0.000000
LeftUpLeg -37.370200 36.858959 14.781491
LeftLeg -2.219536 -0.000000 0.000000
LeftFoot 12.783091 25.615371 -33.094564
LeftToeBase 0.881169 -0.000000 -0.000000
Spine 71.095667 -23.265571 7.390885
RightShoulder 16.631439 52.969667 -31.281151
RightArm 15.345181 17.655842 39.379375
RightForeArm -30.780573 -0.000000 40.829620
RightHand 0.792160 -0.000000 -7.604755
RightHandThumb1 -24.326973 -0.000000 -32.862282
LeftShoulder -9.922458 0.899583 55.857083
LeftArm 106.714851 -41.785104 -42.669784
LeftForeArm 66.212959 -0.000000 28.514086
LeftHand -7.839233 0.000000 -4.584489
LeftHandThumb1 -26.253704 0.000000 33.147579
Head 55.795571 -19.515062 19.926149
1116
root 2.773723 3.824574 -0.407721 -35.796012 -4.812910 17.401044
RightUpLeg -55.365151 -23.711620 -34.231174
RightLeg 5.908643 -0.000000 -0.000000
RightFoot -2.660998 -21.188997 29.947436
RightToeBase -21.014766 -0.000000 0.000000
LeftUpLeg -37.398433 36.869979 14.749811
LeftLeg -2.215296 -0.000000 0.000000
LeftFoot 12.785257 25.678583 -33.098141
LeftToeBase 0.515067 -0.000000 -0.000000
Spine 71.095446 -23.274245 7.365710
RightShoulder 16.653199 53.008332 -31.249129
RightArm 15.325663 17.594392 39.360809
RightForeArm -30.748735 -0.000000 40.851912
RightHand 0.822431 0.000000 -7.575204
RightHandThumb1 -24.326973 -0.000000 -32.862282
LeftShoulder -9.943951 0.959399 55.833139
LeftArm 106.731434 -41.836235 -42.676060
LeftForeArm 66.217122 -0.000000 28.541523
LeftHand -7.804580 -0.000000 -4.604760
LeftHandThumb1 -26.253704 0.000000 33.147579
Head 55.776317 -19.542113 19.897930
1117
root 2.773826 3.826129 -0.407039 -35.791469 -4.801257 17.409913
RightUpLeg -55.358173 -23.712490 -34.259508
RightLeg 5.909655 -0.000000 -0.000000
RightFoot -2.680857 -21.187379 29.982219
RightToeBase -21.036138 -0.000000 0.000000
LeftUpLeg -37.398691 36.865070 14.728524
LeftLeg -2.224894 -0.000000 0.000000
LeftFoot 12.788548 25.721917 -33.124838
LeftToeBase 0.908947 -0.000000 -0.000000
Spine 71.111825 -23.301570 7.343272
RightShoulder 16.630882 53.004411 -31.292543
RightArm 15.328258 17.604288 39.397798
RightForeArm -30.718067 -0.000000 40.873512
RightHand 0.877030 -0.000000 -7.587529
RightHandThumb1 -24.326973 -0.000000 -32.862282
LeftShoulder -9.938781 1.106739 55.757699
LeftArm 106.779974 -42.016016 -42.644178
LeftForeArm 66.180113 -0.000000 28.555957
LeftHand -7.760836 -0.000000 -4.576066
LeftHandThumb1 -26.253704 0.000000 33.147579
Head 55.764228 -19.540079 19.905160
